<svg viewBox="0 0 60 60">
  <text font-family="MyriadPro-Regular, Myriad Pro" font-size="9" transform="translate(2.504 -49.61)"/>
  <g data-name="Layer 1">
    <path d="M45 54h-.548c.713-2.714-1.2-3.75-2.531-4.467-1.52-.817-2.638-1.419-2.063-3.862a6.868 6.868 0 0 0 1.643-1.361 3.828 3.828 0 0 0 .762-1.334 3.644 3.644 0 0 0 2.417-1.763 3.693 3.693 0 0 0 .215-3.66 1.12 1.12 0 0 0-.067-.115c-3.302-4.868-2.106-9.55-.842-14.506 1.34-5.246 2.723-10.671-1.162-16.498a13.023 13.023 0 0 0-5.752-5.084l-.086-.514a1 1 0 0 0-1.843-.35l-1.537 2.56c-5.557.72-8.262 3.993-10.646 6.893-1.57 1.909-3.052 3.71-5.196 4.62a3.574 3.574 0 0 0-2.008 2.909 6.925 6.925 0 0 0 .11 2.847 6.159 6.159 0 0 1 .139.78A1 1 0 0 0 17 22a7.492 7.492 0 0 0 1.314-.13 4.076 4.076 0 0 0 2.039 2.094 3.62 3.62 0 0 0 1.378.26 10.577 10.577 0 0 0 4.01-1.19 27.485 27.485 0 0 1 1.527-.634 32.446 32.446 0 0 1-5.356 6.426c-3.296 3.341-6.408 6.495-6.13 10.224.168 2.266 1.588 4.408 4.34 6.538.62 2.513-.507 3.119-2.043 3.945-1.332.717-3.244 1.753-2.531 4.467H15a1 1 0 0 0-1 1v4a1 1 0 0 0 1 1h30a1 1 0 0 0 1-1v-4a1 1 0 0 0-1-1ZM41.168 7.555c3.383 5.074 2.167 9.839.88 14.882-1.314 5.149-2.672 10.471 1.083 16.062a1.703 1.703 0 0 1-.118 1.606 2.216 2.216 0 0 1-.658.718 4.133 4.133 0 0 0-.98-1.861c-5.155-5.623-3.812-10.778-2.39-16.236 1.326-5.09 2.697-10.352-1.034-16.099l-.474-2.849a12.253 12.253 0 0 1 3.691 3.777ZM24.933 21.203c-1.43.63-2.905 1.285-3.826.908a1.873 1.873 0 0 1-.848-.82 8.03 8.03 0 0 0 2.448-1.584 1 1 0 0 0-1.414-1.414 6.645 6.645 0 0 1-3.463 1.643l-.012-.057a5.024 5.024 0 0 1-.082-2.138 1.668 1.668 0 0 1 .809-1.34c2.597-1.102 4.307-3.181 5.96-5.191 2.068-2.516 4.042-4.907 7.724-5.869l-.086.144a1 1 0 1 0 1.714 1.03l1.603-2.671.554 3.32a1.012 1.012 0 0 0 .154.39 12.509 12.509 0 0 1 2.16 8.062c-2.67 4.382-6.338 4.392-9.218 4.384H29a10.665 10.665 0 0 0-4.067 1.203Zm-7.158 17.698c-.21-2.822 2.593-5.663 5.56-8.67 2.518-2.551 5.098-5.19 6.342-8.238 2.35-.035 5.394-.212 8.066-2.56-.208.922-.45 1.85-.693 2.788-1.494 5.736-3.04 11.668 2.851 18.092a1.993 1.993 0 0 1 .102 2.67A4.806 4.806 0 0 1 38.72 44H21.347c-2.27-1.76-3.447-3.43-3.572-5.099Zm1.252 12.393c1.484-.798 3.638-1.968 3.2-5.294h15.547c-.44 3.326 1.715 4.496 3.199 5.294 1.428.769 2.038 1.116 1.38 2.706H17.647c-.658-1.59-.048-1.937 1.38-2.706ZM44 58H16v-2h28Z"/>
    <path d="M30 11.46V12a1 1 0 0 0 2 0v-.368l.01.003A7.139 7.139 0 0 0 34 12a1 1 0 0 0 0-2 5.596 5.596 0 0 1-1.44-.288c-1.415-.405-3.558-1.018-5.392 1.733a1 1 0 1 0 1.664 1.11A2.656 2.656 0 0 1 30 11.459Z"/>
  </g>
</svg>
